<svg xmlns="http://www.w3.org/2000/svg" xmlns:xlink="http://www.w3.org/1999/xlink" width="150" zoomAndPan="magnify" viewBox="0 0 112.5 31.5" height="42" preserveAspectRatio="xMidYMid meet" version="1.0"><defs><g/><clipPath id="be5df2e597"><path d="M 24 7 L 27.375 7 L 27.375 11 L 24 11 Z M 24 7 " clip-rule="nonzero"/></clipPath><clipPath id="6433dfe6ef"><path d="M 24 0.734375 L 27 0.734375 L 27 3 L 24 3 Z M 24 0.734375 " clip-rule="nonzero"/></clipPath><clipPath id="b2eb75bbce"><path d="M 2.902344 6 L 22 6 L 22 25.207031 L 2.902344 25.207031 Z M 2.902344 6 " clip-rule="nonzero"/></clipPath></defs><g fill="#ffffff" fill-opacity="1"><g transform="translate(23.191718, 24.967396)"><g><path d="M 12.289062 0.0429688 L 13.082031 -0.0195312 L 13.476562 0.0195312 L 14.125 0 L 14.707031 -0.105469 L 14.769531 -0.605469 L 14.625 -1.082031 L 14.3125 -1.855469 L 13.75 -2.9375 L 13.457031 -3.707031 L 13.039062 -4.457031 L 12.25 -6.351562 L 12.039062 -6.664062 L 11.832031 -7.0625 L 11.707031 -7.519531 L 11.519531 -7.832031 L 11.394531 -8.164062 L 10.957031 -8.9375 L 10.8125 -9.375 L 9.4375 -12.269531 L 9.3125 -12.6875 L 9.082031 -13.0625 L 8.957031 -13.4375 L 8.5625 -14.164062 L 8.207031 -14.539062 L 7.519531 -14.75 L 6.851562 -14.519531 L 6.476562 -14.164062 L 6.289062 -13.8125 L 6.144531 -13.394531 L 5.957031 -13.101562 L 5.125 -11.1875 L 4.894531 -10.875 L 4.792969 -10.457031 L 4.5625 -10.0625 L 4.4375 -9.6875 L 2.3125 -5.230469 L 2.1875 -4.769531 L 1.980469 -4.457031 L 1.832031 -4.042969 L 1.457031 -3.375 L 1.144531 -2.542969 L 0.917969 -2.25 L 0.8125 -1.875 L 0.394531 -1.042969 L 0.269531 -0.625 L 0.375 -0.105469 L 0.792969 0.0195312 L 1.605469 -0.0195312 L 2.019531 0.0195312 L 3.1875 -0.0195312 L 3.667969 -0.167969 L 4.0625 -0.542969 L 4.4375 -1.230469 L 4.832031 -1.625 L 5.269531 -1.855469 L 5.667969 -1.792969 L 6.539062 -1.875 L 6.914062 -1.8125 L 8.957031 -1.832031 L 9.332031 -1.792969 L 9.789062 -1.855469 L 10.25 -1.625 L 10.644531 -1.292969 L 10.832031 -0.894531 L 10.957031 -0.519531 L 11.375 -0.207031 L 11.851562 0 Z M 7.5625 -5.144531 L 7.144531 -5.230469 L 6.664062 -5.1875 L 6.332031 -5.332031 L 6.3125 -5.730469 L 7.289062 -7.976562 L 7.519531 -8.164062 L 7.8125 -8 L 8.789062 -5.707031 L 8.707031 -5.332031 L 8.394531 -5.167969 Z M 7.5625 -5.144531 "/></g></g></g><g fill="#ffffff" fill-opacity="1"><g transform="translate(38.314518, 24.967396)"><g><path d="M 12.289062 -0.355469 L 12.851562 -0.0195312 L 13.4375 0.0429688 L 13.894531 -0.105469 L 14.101562 -0.519531 L 14.144531 -8.125 L 14.082031 -8.476562 L 14.082031 -10.539062 L 14.144531 -11.039062 L 14.082031 -13.9375 L 13.875 -14.351562 L 13.457031 -14.582031 L 10.875 -14.5625 L 10.476562 -14.332031 L 10.25 -13.894531 L 10.226562 -13.457031 L 10.289062 -13.125 L 10.226562 -12.25 L 10.269531 -11.789062 L 10.226562 -8.0625 L 10.101562 -7.707031 L 9.789062 -7.851562 L 8.3125 -9.332031 L 7.726562 -9.789062 L 3.625 -13.9375 L 3.3125 -14.1875 L 2.832031 -14.4375 L 2.207031 -14.582031 L 1.730469 -14.375 L 1.542969 -13.976562 L 1.542969 -7.664062 L 1.519531 -7.3125 L 1.5625 -6.457031 L 1.5 -6.101562 L 1.542969 -2.6875 L 1.5 -2.292969 L 1.542969 -0.542969 L 1.730469 -0.144531 L 2.167969 0 L 3.019531 0.0429688 L 3.480469 0 L 4.292969 0.0625 L 4.730469 0.0429688 L 5.144531 -0.167969 L 5.355469 -0.8125 L 5.375 -6.082031 L 5.417969 -6.5 L 5.5625 -6.851562 L 5.832031 -6.75 L 6.101562 -6.394531 L 7.582031 -4.980469 L 7.851562 -4.667969 L 8.207031 -4.4375 L 11.4375 -1.230469 L 11.976562 -0.625 Z M 12.289062 -0.355469 "/></g></g></g><g fill="#ffffff" fill-opacity="1"><g transform="translate(54.020564, 24.967396)"><g><path d="M 5.4375 0.0429688 L 6.832031 0 L 7.4375 -0.207031 L 7.644531 -0.792969 L 7.707031 -1.875 L 7.644531 -2.667969 L 7.6875 -3.105469 L 7.664062 -3.9375 L 7.707031 -4.3125 L 7.644531 -4.769531 L 7.6875 -8.125 L 7.625 -8.5625 L 7.6875 -10.375 L 7.851562 -11 L 8.25 -11.25 L 9.0625 -11.289062 L 9.832031 -11.1875 L 10.269531 -11.25 L 10.644531 -11.226562 L 11 -11.457031 L 11.25 -11.914062 L 11.269531 -13.894531 L 11.039062 -14.3125 L 10.644531 -14.582031 L 9.351562 -14.582031 L 8.957031 -14.625 L 8.519531 -14.5625 L 8.125 -14.601562 L 6.4375 -14.519531 L 6.019531 -14.601562 L 5.625 -14.625 L 5.1875 -14.5625 L 4.730469 -14.601562 L 4.355469 -14.519531 L 3.125 -14.582031 L 2.480469 -14.519531 L 1.019531 -14.601562 L 0.625 -14.394531 L 0.375 -13.914062 L 0.394531 -13.5 L 0.355469 -12.457031 L 0.394531 -11.8125 L 0.582031 -11.4375 L 0.957031 -11.226562 L 1.375 -11.269531 L 3.355469 -11.226562 L 3.75 -11.019531 L 3.980469 -10.601562 L 3.9375 -9.9375 L 3.980469 -9.351562 L 3.957031 -8.894531 L 3.980469 -8.476562 L 3.9375 -7.894531 L 4 -4.792969 L 3.957031 -4.375 L 3.9375 -2.6875 L 3.980469 -2.25 L 3.957031 -1.042969 L 3.917969 -0.644531 L 4.1875 -0.1875 L 4.792969 0.0195312 Z M 5.4375 0.0429688 "/></g></g></g><g fill="#ffffff" fill-opacity="1"><g transform="translate(65.664701, 24.967396)"><g><path d="M 8.351562 0.269531 L 10.207031 0.0820312 L 11 -0.167969 L 12.851562 -1 L 14.3125 -2.394531 L 14.582031 -2.769531 L 15.394531 -4.207031 L 15.539062 -4.605469 L 15.601562 -5.019531 L 15.726562 -5.355469 L 15.8125 -5.8125 L 15.914062 -7.269531 L 15.8125 -8.707031 L 15.644531 -9.476562 L 15.476562 -9.914062 L 15.375 -10.394531 L 15 -11.082031 L 14.851562 -11.457031 L 14.582031 -11.8125 L 14.332031 -12.0625 L 14.0625 -12.4375 L 13.164062 -13.25 L 12.101562 -13.914062 L 9.375 -14.769531 L 8.394531 -14.789062 L 6.9375 -14.707031 L 6.519531 -14.625 L 6.101562 -14.5 L 5.730469 -14.332031 L 4.9375 -14.125 L 3.875 -13.457031 L 3.582031 -13.207031 L 2.917969 -12.75 L 2.355469 -12.125 L 1.644531 -11.082031 L 1.457031 -10.726562 L 1.0625 -9.582031 L 0.894531 -8.6875 L 0.8125 -6.269531 L 1.042969 -4.957031 L 1.355469 -4.25 L 1.480469 -3.8125 L 1.6875 -3.4375 L 2.667969 -2.105469 L 3.25 -1.542969 L 3.519531 -1.230469 L 4.9375 -0.480469 L 5.332031 -0.3125 L 7.101562 0.207031 Z M 7.769531 -3.394531 L 7.351562 -3.542969 L 6.976562 -3.582031 L 6.269531 -3.957031 L 5.625 -4.519531 L 5.417969 -4.8125 L 5.144531 -5.105469 L 4.75 -6.269531 L 4.644531 -7.3125 L 4.667969 -7.9375 L 4.8125 -8.707031 L 4.9375 -9.082031 L 5.1875 -9.375 L 5.375 -9.726562 L 5.644531 -10.0625 L 5.957031 -10.332031 L 6.5625 -10.75 L 6.9375 -10.9375 L 7.375 -11.039062 L 8.332031 -11.125 L 9.332031 -11.0625 L 10.4375 -10.582031 L 11.082031 -10.101562 L 11.5625 -9.394531 L 11.726562 -9.019531 L 11.851562 -8.601562 L 12 -8.226562 L 12.082031 -7.332031 L 11.957031 -6.289062 L 11.769531 -5.4375 L 11.539062 -5.125 L 11.351562 -4.8125 L 11.101562 -4.4375 L 10.457031 -3.9375 L 10.082031 -3.769531 L 9.75 -3.582031 L 9.375 -3.542969 L 8.976562 -3.4375 Z M 7.769531 -3.394531 "/></g></g></g><g fill="#ffffff" fill-opacity="1"><g transform="translate(82.370603, 24.967396)"><g><path d="M 1.519531 -0.605469 L 1.730469 -0.207031 L 2.1875 0 L 3.644531 0.0625 L 4.6875 -0.0195312 L 5.125 -0.207031 L 5.375 -0.832031 L 5.3125 -1.5 L 5.355469 -1.894531 L 5.332031 -4.105469 L 5.519531 -4.519531 L 5.9375 -4.707031 L 6.394531 -4.75 L 6.832031 -4.667969 L 7.25 -4.75 L 7.664062 -4.707031 L 8.101562 -4.730469 L 8.519531 -4.6875 L 9.375 -4.730469 L 9.8125 -4.9375 L 10.019531 -5.582031 L 10 -7.4375 L 9.789062 -7.851562 L 9.351562 -8.019531 L 8.332031 -8.0625 L 7.226562 -7.976562 L 6.414062 -8.082031 L 5.957031 -8.0625 L 5.542969 -8.226562 L 5.3125 -8.664062 L 5.3125 -9.25 L 5.355469 -9.644531 L 5.3125 -10.582031 L 5.519531 -11 L 5.917969 -11.269531 L 6.582031 -11.269531 L 7.1875 -11.226562 L 7.5625 -11.25 L 7.976562 -11.226562 L 8.414062 -11.269531 L 10 -11.226562 L 10.414062 -11.4375 L 10.625 -11.851562 L 10.582031 -12.914062 L 10.625 -13.707031 L 10.375 -14.332031 L 10.019531 -14.5625 L 8.769531 -14.539062 L 8.3125 -14.601562 L 7.5 -14.5625 L 7.125 -14.601562 L 6.5 -14.5625 L 6.082031 -14.582031 L 5.4375 -14.539062 L 4.625 -14.539062 L 4.25 -14.582031 L 3.1875 -14.582031 L 2.75 -14.539062 L 2.167969 -14.5625 L 1.707031 -14.332031 L 1.582031 -13.957031 L 1.519531 -13.101562 L 1.582031 -12.476562 L 1.5 -10.144531 L 1.542969 -9.789062 L 1.5625 -9.351562 L 1.519531 -8.976562 L 1.5625 -8.5 L 1.519531 -8.125 L 1.5 -7.726562 L 1.542969 -7.332031 L 1.5 -6.851562 Z M 1.519531 -0.605469 "/></g></g></g><g fill="#ffffff" fill-opacity="1"><g transform="translate(93.723119, 24.967396)"><g><path d="M 4.769531 -0.625 L 4.9375 -0.167969 L 5.375 0 L 5.792969 0.0195312 L 6.164062 -0.0195312 L 6.8125 0.0195312 L 7.394531 -0.0195312 L 7.8125 0.0195312 L 8.226562 -0.207031 L 8.394531 -0.644531 L 8.457031 -3.0625 L 8.414062 -3.480469 L 8.414062 -3.894531 L 8.476562 -4.269531 L 8.457031 -5.480469 L 8.582031 -6.082031 L 8.789062 -6.625 L 11.4375 -10.976562 L 11.6875 -11.269531 L 13.019531 -13.476562 L 13.25 -14 L 13.164062 -14.457031 L 12.789062 -14.539062 L 11.976562 -14.5625 L 11.539062 -14.519531 L 11.125 -14.582031 L 10.3125 -14.5625 L 9.957031 -14.582031 L 9.394531 -14.375 L 9.019531 -14.019531 L 8.476562 -13.125 L 8.226562 -12.5 L 7.769531 -11.832031 L 7.5625 -11.394531 L 7.351562 -11.039062 L 7 -10.25 L 6.726562 -9.894531 L 6.5 -9.894531 L 6.269531 -10.289062 L 6.039062 -10.625 L 5.417969 -11.789062 L 5.1875 -12.144531 L 4.207031 -13.976562 L 3.769531 -14.375 L 3.292969 -14.5625 L 2.855469 -14.539062 L 2.5 -14.625 L 1.4375 -14.539062 L 0.480469 -14.601562 L 0.0625 -14.394531 L 0 -13.9375 L 0.207031 -13.457031 L 1.105469 -11.976562 L 1.332031 -11.6875 L 2.1875 -10.207031 L 2.6875 -9.539062 L 2.855469 -9.164062 L 4.457031 -6.625 L 4.667969 -6.039062 L 4.769531 -5.480469 L 4.75 -3.832031 L 4.792969 -3.417969 L 4.75 -1.8125 L 4.792969 -1.417969 Z M 4.769531 -0.625 "/></g></g></g><path fill="#ffffff" d="M 23.378906 7.898438 L 21.128906 7.898438 C 20.316406 7.898438 19.65625 7.242188 19.65625 6.433594 L 19.65625 4.199219 C 19.65625 3.390625 20.316406 2.730469 21.128906 2.730469 L 23.378906 2.730469 C 24.195312 2.730469 24.855469 3.390625 24.855469 4.199219 L 24.855469 6.433594 C 24.855469 7.242188 24.195312 7.898438 23.378906 7.898438 " fill-opacity="1" fill-rule="nonzero"/><g clip-path="url(#be5df2e597)"><path fill="#ffffff" d="M 26.644531 10.445312 L 25.539062 10.445312 C 25.136719 10.445312 24.8125 10.121094 24.8125 9.722656 L 24.8125 8.621094 C 24.8125 8.222656 25.136719 7.898438 25.539062 7.898438 L 26.644531 7.898438 C 27.046875 7.898438 27.371094 8.222656 27.371094 8.621094 L 27.371094 9.722656 C 27.371094 10.121094 27.046875 10.445312 26.644531 10.445312 " fill-opacity="1" fill-rule="nonzero"/></g><g clip-path="url(#6433dfe6ef)"><path fill="#ffffff" d="M 26.375 2.847656 L 25.457031 2.847656 C 25.125 2.847656 24.855469 2.582031 24.855469 2.25 L 24.855469 1.335938 C 24.855469 1.007812 25.125 0.738281 25.457031 0.738281 L 26.375 0.738281 C 26.707031 0.738281 26.976562 1.007812 26.976562 1.335938 L 26.976562 2.25 C 26.976562 2.582031 26.707031 2.847656 26.375 2.847656 " fill-opacity="1" fill-rule="nonzero"/></g><g clip-path="url(#b2eb75bbce)"><path fill="#ffffff" d="M 17.617188 20.464844 C 17.617188 20.492188 17.585938 20.503906 17.566406 20.488281 L 14.507812 17.496094 C 14.503906 17.492188 14.5 17.484375 14.5 17.476562 L 14.5 16.957031 C 14.496094 16.953125 14.492188 16.953125 14.492188 16.953125 L 14.457031 14.847656 C 14.457031 14.160156 14.246094 13.636719 13.828125 13.277344 C 13.410156 12.917969 12.789062 12.738281 11.96875 12.738281 C 11.332031 12.738281 10.773438 12.792969 10.289062 12.898438 C 10.214844 12.917969 10.136719 12.933594 10.0625 12.953125 C 10.050781 12.957031 10.039062 12.953125 10.03125 12.945312 L 8.074219 10.851562 C 8.0625 10.839844 8.066406 10.8125 8.085938 10.804688 C 8.675781 10.5625 9.292969 10.359375 9.933594 10.199219 C 10.625 10.027344 11.460938 9.941406 12.445312 9.941406 C 14.246094 9.941406 15.5625 10.378906 16.382812 11.253906 C 17.207031 12.128906 17.617188 13.347656 17.617188 14.914062 Z M 17.617188 21.574219 C 17.617188 21.589844 17.605469 21.605469 17.589844 21.605469 L 14.464844 21.605469 C 14.449219 21.605469 14.433594 21.589844 14.433594 21.574219 L 14.433594 20.429688 C 14.433594 20.402344 14.402344 20.390625 14.382812 20.410156 C 13.992188 20.832031 13.523438 21.167969 12.984375 21.421875 C 12.421875 21.6875 11.738281 21.820312 10.929688 21.820312 C 10.378906 21.820312 9.863281 21.742188 9.378906 21.59375 C 8.894531 21.441406 8.472656 21.214844 8.113281 20.914062 C 7.753906 20.613281 7.46875 20.246094 7.257812 19.808594 C 7.050781 19.371094 6.945312 18.863281 6.945312 18.289062 L 6.945312 18.246094 C 6.945312 17.617188 7.058594 17.070312 7.289062 16.613281 C 7.523438 16.152344 7.84375 15.773438 8.253906 15.472656 C 8.664062 15.171875 9.15625 14.945312 9.726562 14.792969 C 9.738281 14.792969 9.746094 14.789062 9.757812 14.785156 C 10.296875 14.648438 10.890625 14.574219 11.535156 14.566406 C 11.542969 14.566406 11.550781 14.570312 11.558594 14.578125 L 12.796875 15.824219 L 13.441406 16.472656 L 13.5625 16.59375 C 13.585938 16.617188 13.566406 16.652344 13.535156 16.644531 C 13.183594 16.566406 12.804688 16.527344 12.398438 16.527344 C 12.144531 16.527344 11.90625 16.542969 11.691406 16.578125 C 11.3125 16.640625 10.992188 16.761719 10.734375 16.933594 C 10.328125 17.207031 10.128906 17.601562 10.128906 18.117188 L 10.128906 18.160156 C 10.128906 18.605469 10.292969 18.949219 10.625 19.195312 C 10.957031 19.4375 11.390625 19.558594 11.925781 19.558594 C 12.703125 19.558594 13.328125 19.375 13.796875 19 C 14.003906 18.835938 14.164062 18.648438 14.28125 18.441406 C 14.289062 18.425781 14.308594 18.417969 14.320312 18.429688 L 17.605469 20.738281 C 17.613281 20.742188 17.617188 20.753906 17.617188 20.761719 Z M 15.289062 6.558594 L 9.273438 6.558594 C 5.753906 6.558594 2.902344 9.394531 2.902344 12.890625 L 2.902344 18.871094 C 2.902344 22.367188 5.753906 25.203125 9.273438 25.203125 L 15.289062 25.203125 C 18.808594 25.203125 21.660156 22.367188 21.660156 18.871094 L 21.660156 12.890625 C 21.660156 9.394531 18.808594 6.558594 15.289062 6.558594 " fill-opacity="1" fill-rule="nonzero"/></g></svg>